<?xml version="1.0" encoding="UTF-8"?>
<svg xmlns="http://www.w3.org/2000/svg" width="128" height="128" viewBox="0 0 128 128">
  <defs>
    <linearGradient id="bg" x1="10" y1="10" x2="118" y2="118" gradientUnits="userSpaceOnUse">
      <stop offset="0" stop-color="#4a4e57"/>
      <stop offset="1" stop-color="#23262d"/>
    </linearGradient>
    <linearGradient id="film" x1="22" y1="48" x2="106" y2="80" gradientUnits="userSpaceOnUse">
      <stop offset="0" stop-color="#d7dbe2"/>
      <stop offset="1" stop-color="#9ea6b3"/>
    </linearGradient>
  </defs>

  <rect x="8" y="8" width="112" height="112" rx="24" ry="24" fill="url(#bg)"/>

  <!-- Film strip -->
  <rect x="22" y="48" width="84" height="32" rx="6" ry="6" fill="url(#film)"/>
  <rect x="28" y="56" width="16" height="16" rx="2" ry="2" fill="#353943"/>
  <rect x="48" y="56" width="16" height="16" rx="2" ry="2" fill="#353943"/>
  <rect x="68" y="56" width="16" height="16" rx="2" ry="2" fill="#353943"/>
  <rect x="88" y="56" width="12" height="16" rx="2" ry="2" fill="#353943"/>

  <!-- Perforations top -->
  <rect x="26" y="50" width="6" height="4" rx="1" fill="#23262d"/>
  <rect x="38" y="50" width="6" height="4" rx="1" fill="#23262d"/>
  <rect x="50" y="50" width="6" height="4" rx="1" fill="#23262d"/>
  <rect x="62" y="50" width="6" height="4" rx="1" fill="#23262d"/>
  <rect x="74" y="50" width="6" height="4" rx="1" fill="#23262d"/>
  <rect x="86" y="50" width="6" height="4" rx="1" fill="#23262d"/>
  <rect x="98" y="50" width="4" height="4" rx="1" fill="#23262d"/>

  <!-- Perforations bottom -->
  <rect x="26" y="74" width="6" height="4" rx="1" fill="#23262d"/>
  <rect x="38" y="74" width="6" height="4" rx="1" fill="#23262d"/>
  <rect x="50" y="74" width="6" height="4" rx="1" fill="#23262d"/>
  <rect x="62" y="74" width="6" height="4" rx="1" fill="#23262d"/>
  <rect x="74" y="74" width="6" height="4" rx="1" fill="#23262d"/>
  <rect x="86" y="74" width="6" height="4" rx="1" fill="#23262d"/>
  <rect x="98" y="74" width="4" height="4" rx="1" fill="#23262d"/>

  <!-- Reel accent -->
  <circle cx="34" cy="34" r="13" fill="#c4cad4"/>
  <circle cx="34" cy="34" r="4" fill="#353943"/>
  <circle cx="28" cy="29" r="2.2" fill="#353943"/>
  <circle cx="40" cy="29" r="2.2" fill="#353943"/>
  <circle cx="28" cy="39" r="2.2" fill="#353943"/>
  <circle cx="40" cy="39" r="2.2" fill="#353943"/>
</svg>
